<?xml version="1.0" encoding="iso-8859-1"?>
<!-- Generator: Adobe Illustrator 19.0.0, SVG Export Plug-In . SVG Version: 6.00 Build 0)  -->
<svg version="1.1" id="Layer_1" xmlns="http://www.w3.org/2000/svg" xmlns:xlink="http://www.w3.org/1999/xlink" x="0px" y="0px"
	 viewBox="0 0 512 512" style="enable-background:new 0 0 512 512;" xml:space="preserve">
<g>
	<g>
		<g>
			<path d="M256,187.733c-37.641,0-68.267,30.626-68.267,68.267c0,37.641,30.626,68.267,68.267,68.267
				c37.641,0,68.267-30.626,68.267-68.267C324.267,218.359,293.641,187.733,256,187.733z"/>
			<path d="M256,68.267C152.482,68.267,68.267,152.482,68.267,256c0,103.518,84.215,187.733,187.733,187.733
				S443.733,359.518,443.733,256C443.733,152.482,359.518,68.267,256,68.267z M256,341.333c-47.053,0-85.333-38.281-85.333-85.333
				s38.281-85.333,85.333-85.333s85.333,38.281,85.333,85.333S303.053,341.333,256,341.333z"/>
			<path d="M256,0C114.842,0,0,114.842,0,256s114.842,256,256,256s256-114.842,256-256S397.158,0,256,0z M256,460.8
				c-112.922,0-204.8-91.878-204.8-204.8S143.078,51.2,256,51.2S460.8,143.078,460.8,256S368.922,460.8,256,460.8z"/>
		</g>
	</g>
</g>
<g>
</g>
<g>
</g>
<g>
</g>
<g>
</g>
<g>
</g>
<g>
</g>
<g>
</g>
<g>
</g>
<g>
</g>
<g>
</g>
<g>
</g>
<g>
</g>
<g>
</g>
<g>
</g>
<g>
</g>
</svg>
