<?xml version="1.0" ?><!DOCTYPE svg  PUBLIC '-//W3C//DTD SVG 1.1//EN'  'http://www.w3.org/Graphics/SVG/1.1/DTD/svg11.dtd'><svg width="512px" height="512px" viewBox="0 0 512 512" enable-background="new 0 0 512 512" id="Layer_1" version="1.1" xml:space="preserve" xmlns="http://www.w3.org/2000/svg" xmlns:xlink="http://www.w3.org/1999/xlink"><g><g><path d="M234.456,377.883c-1.727,0-3.453-0.446-5-1.34c-3.094-1.786-5-5.088-5-8.66v-66.099c0-3.572,1.906-6.874,5-8.66    c3.094-1.787,6.906-1.787,10,0l57.243,33.05c3.094,1.786,5,5.088,5,8.66s-1.906,6.874-5,8.66l-57.243,33.049    C237.909,377.437,236.183,377.883,234.456,377.883z M244.456,319.104v31.458l27.243-15.729L244.456,319.104z"/></g><g><path d="M364.5,454.001h-217c-12.131,0-22-9.869-22-22V79.999c0-12.131,9.869-22,22-22h217c12.131,0,22,9.869,22,22v352.002    C386.5,444.132,376.631,454.001,364.5,454.001z M147.5,77.999c-1.103,0-2,0.897-2,2v352.002c0,1.103,0.897,2,2,2h217    c1.103,0,2-0.897,2-2V79.999c0-1.103-0.897-2-2-2H147.5z"/></g><g><path d="M348.333,228.933H163.667c-5.522,0-10-4.478-10-10V101.735c0-5.522,4.478-10,10-10h184.666c5.522,0,10,4.478,10,10    v117.197C358.333,224.455,353.855,228.933,348.333,228.933z M173.667,208.933h164.666v-97.197H173.667V208.933z"/></g><g><path d="M256,412.172c-42.645,0-77.338-34.693-77.338-77.338s34.693-77.338,77.338-77.338s77.338,34.693,77.338,77.338    S298.645,412.172,256,412.172z M256,277.496c-31.616,0-57.338,25.722-57.338,57.338s25.722,57.338,57.338,57.338    s57.338-25.722,57.338-57.338S287.616,277.496,256,277.496z"/></g></g></svg>