<svg version="1.1" id="Uploaded to svgrepo.com" xmlns="http://www.w3.org/2000/svg" xmlns:xlink="http://www.w3.org/1999/xlink" x="0px" y="0px"
	 width="32px" height="32px" viewBox="0 0 32 32" style="enable-background:new 0 0 32 32;" xml:space="preserve">
<style type="text/css">
	.duotone_twee{fill:#555D5E;}
	.duotone_een{fill:#0B1719;}
	.st0{fill:none;}
</style>
<g>
	<path class="duotone_twee" d="M24.53,22.991l-9.688-11.563c-0.492,2.145-2.106,3.651-4.102,4.111l11.56,9.685
		C22.521,24.682,24.174,23.137,24.53,22.991z"/>
	<path class="duotone_een" d="M25.454,24.025l0.707,0.707c0.195,0.195,0.195,0.512,0,0.707l-1.414,1.414
		c-0.195,0.195-0.512,0.195-0.707,0l-0.707-0.707c-0.195-0.195-0.195-0.512,0-0.707l1.414-1.414
		C24.942,23.83,25.259,23.83,25.454,24.025z M9.5,5.5C7.015,5.5,5,7.515,5,10s2.015,4.5,4.5,4.5S14,12.485,14,10S11.985,5.5,9.5,5.5
		z"/>
</g>
</svg>